# xmcd
#
# Track frame offsets: 
#        150
#        12369
#        23385
#        38991
#        53813
#        71185
#        83058
#        92817
#        106365
#        122312
#        138125
#        151963
#
# Disc length: 2195 seconds
#
# Revision: 0
# Processed by: cddbd v1.5.1PL2 Copyright (c) Steve Scherf et al.
# Submitted via: ExactAudioCopy v0.95b3
#
DISCID=8c08910c
DTITLE=Prater, Sherri - Jesus Is The Rock
DYEAR=1900
DGENRE=Bluegrass
TTITLE0=Paul And Silas
TTITLE1=Jesus Is The Rock
TTITLE2=He Walked On The Water
TTITLE3=Family Circle
TTITLE4=Here Today And Gone Tomorrow
TTITLE5=It's Me Again Lord
TTITLE6=Didn't They Crucify My Lord
TTITLE7=He's Willing To Save Your Sould Yet
TTITLE8=Me And Jesus
TTITLE9=One Day At A Time
TTITLE10=Rank Stranger
TTITLE11=Walking In Jerusalem
EXTD=
EXTT0=
EXTT1=
EXTT2=
EXTT3=
EXTT4=
EXTT5=
EXTT6=
EXTT7=
EXTT8=
EXTT9=
EXTT10=
EXTT11=
PLAYORDER=
